<svg width="40" height="40" viewBox="0 0 40 40" fill="none" xmlns="http://www.w3.org/2000/svg">
<g clip-path="url(#clip0_889_296)">
<path d="M33.1792 0C31.9559 0 30.9272 0.907999 30.603 2.15229L10.6549 1.91208C8.37695 1.88326 6.99809 4.70334 8.26457 6.8124L14.3376 16.9349L12.4055 20.8023L13.7843 20.7398L23.605 3.81456L17.7567 13.4422L13.3089 5.20298C12.9371 4.51597 13.391 3.64641 14.1085 3.65602L23.605 3.81456H30.603C30.9272 5.05885 31.9559 5.97165 33.1835 5.97165C34.6661 5.97165 35.8678 4.63608 35.8678 2.98823C35.8634 1.33558 34.6618 0 33.1792 0ZM33.8535 3.73769C33.6763 3.92986 33.4429 4.04996 33.1792 4.04996C32.9112 4.04996 32.6778 3.93466 32.5049 3.73769C32.332 3.54072 32.2239 3.28129 32.2239 2.98823C32.2239 2.69037 32.3277 2.43094 32.5049 2.23877C32.6778 2.03699 32.9112 1.92169 33.1792 1.92169C33.4472 1.92169 33.6806 2.03699 33.8535 2.23397C34.0264 2.43094 34.1345 2.69037 34.1345 2.98343C34.1345 3.28129 34.0307 3.54072 33.8535 3.73769Z" fill="url(#paint0_linear_889_296)"/>
<path d="M31.3508 38.3277C31.8867 37.1074 31.6058 35.6806 30.7413 34.811L39.6931 14.9984C40.7175 12.7356 39.0404 10.1221 36.7798 10.4584L25.9304 12.0774L23.6568 8.4502L23.1035 9.85303L32.4746 27.0906L27.2574 17.0257L35.872 16.1994C36.5896 16.1322 37.0953 16.9633 36.7711 17.6791L32.4746 27.0906L29.4013 34.0759C28.2516 33.8501 27.0629 34.4795 26.5269 35.7046C25.8742 37.1843 26.4275 38.9715 27.7588 39.6969C29.0901 40.4223 30.6981 39.8074 31.3508 38.3277ZM28.0354 37.362C27.9576 37.1026 27.962 36.8144 28.0787 36.5501C28.1954 36.2859 28.3942 36.1033 28.6276 36.012C28.861 35.9256 29.1204 35.9304 29.3581 36.0601C29.5958 36.1898 29.7601 36.4108 29.8422 36.6702C29.92 36.9297 29.9157 37.2179 29.799 37.4821C29.6823 37.7464 29.4835 37.9289 29.25 38.0202C29.0166 38.1067 28.7573 38.1019 28.5196 37.9722C28.2775 37.8425 28.1132 37.6215 28.0354 37.362Z" fill="url(#paint1_linear_889_296)"/>
<path d="M0.47117 16.8393C1.16276 17.9587 2.4206 18.3911 3.52715 17.9827L14.6402 36.3973C15.9067 38.5016 18.7811 38.1701 19.6283 35.816L23.7 24.5213L27.6594 24.1081L26.8338 22.8782L8.72274 23.4547L19.1744 23.3634L15.5782 32.1023C15.2799 32.8326 14.3765 32.9094 13.9788 32.2465L8.72274 23.4547L4.76337 17.0459C5.50251 16.0466 5.5976 14.5861 4.90601 13.4619C4.06745 12.1023 2.39466 11.7564 1.17141 12.6884C-0.0561692 13.6205 -0.367386 15.4797 0.47117 16.8393ZM2.86149 14.1057C3.10355 14.1585 3.32399 14.3027 3.47528 14.5477C3.62656 14.7927 3.66979 15.0713 3.62656 15.3452C3.57902 15.6142 3.44934 15.8592 3.2289 16.0274C3.00845 16.1955 2.75775 16.2436 2.51137 16.1955C2.26931 16.1427 2.04887 15.9938 1.89758 15.7535C1.74629 15.5085 1.70307 15.2299 1.74629 14.956C1.79384 14.687 1.92352 14.442 2.14396 14.2738C2.36441 14.1057 2.61511 14.0528 2.86149 14.1057Z" fill="url(#paint2_linear_889_296)"/>
</g>
<defs>
<linearGradient id="paint0_linear_889_296" x1="21.8251" y1="0" x2="21.8251" y2="20.8023" gradientUnits="userSpaceOnUse">
<stop stop-color="#76319B"/>
<stop offset="0.5" stop-color="#82367E"/>
<stop offset="1" stop-color="#F0A8ED"/>
</linearGradient>
<linearGradient id="paint1_linear_889_296" x1="31.5521" y1="8.4502" x2="31.5521" y2="40.0015" gradientUnits="userSpaceOnUse">
<stop stop-color="#76319B"/>
<stop offset="0.5" stop-color="#82367E"/>
<stop offset="1" stop-color="#F0A8ED"/>
</linearGradient>
<linearGradient id="paint2_linear_889_296" x1="13.83" y1="12.165" x2="13.83" y2="37.796" gradientUnits="userSpaceOnUse">
<stop stop-color="#76319B"/>
<stop offset="0.5" stop-color="#82367E"/>
<stop offset="1" stop-color="#F0A8ED"/>
</linearGradient>
<clipPath id="clip0_889_296">
<rect width="40" height="40" fill="white"/>
</clipPath>
</defs>
</svg>
